<svg xmlns="http://www.w3.org/2000/svg" viewBox="0 0 1200 1100" role="img" aria-labelledby="title">
  <title id="title">LOSPOR logo on light background</title>
  <rect width="1200" height="1100" fill="#f7f8f5"/>
  <g fill="none" stroke="#151819" stroke-width="9" stroke-linecap="round" stroke-linejoin="round">
    <path d="M580 90v52m-47 25c15-18 119-18 134 0"/>
    <path d="M476 219c0-48 55-78 124-78s124 30 124 78v34c0 21-55 38-124 38s-124-17-124-38z"/>
    <path d="M480 233c14-21 62-35 120-35s106 14 120 35"/>
    <rect x="494" y="338" width="212" height="153" rx="21"/>
    <rect x="515" y="359" width="151" height="101" rx="7"/>
    <circle cx="684" cy="429" r="13"/>
    <path stroke-width="6" d="M680 376h9m-9 20h9"/>
    <path d="M473 510h254v28H473z"/>
    <path d="M496 538v224h208V538"/>
    <path d="M476 624h248v36H476z"/>
    <path d="M480 762h240v30H480z"/>
    <path d="M522 792v33m156-33v33"/>
    <circle cx="522" cy="842" r="18"/>
    <circle cx="678" cy="842" r="18"/>
    <rect x="523" y="559" width="71" height="94" rx="7"/>
    <circle cx="558.5" cy="590" r="10"/>
    <path stroke-width="6" d="M550 626h18"/>
    <rect x="612" y="559" width="59" height="94" rx="7"/>
    <path stroke-width="6" d="M629 580h25m-12 16v36"/>
    <path stroke-width="6" d="M523 697h149"/>
    <rect x="445" y="570" width="42" height="50" rx="6"/>
    <path stroke-width="6" d="M445 595c-47 0-55 37-55 71 0 29 7 59 26 59s29-30 29-59c0-20-5-40-15-53"/>
    <path stroke-width="6" d="M487 599c0 84 17 118 62 118 36 0 63-22 63-66"/>
    <path stroke-width="6" d="M501 599c0 68 13 97 49 97 27 0 45-16 45-45"/>
  </g>
  <ellipse cx="600" cy="253" rx="108" ry="36" fill="#e79b17"/>
  <path d="M480 233c14-21 62-35 120-35s106 14 120 35" fill="none" stroke="#151819" stroke-width="9" stroke-linecap="round"/>
  <path fill="#111415" d="M401.92 965.87L435.47 965.87L435.47 975L401.92 975L401.92 965.87ZM393.62 908.17L405.14 908.17L405.14 975L393.62 975L393.62 908.17Z M511.67 939.75L511.67 939.75L511.67 943.42Q511.67 951.00 509.69 957.01Q507.72 963.02 504.07 967.24Q500.42 971.47 495.33 973.69Q490.23 975.92 484.04 975.92L484.04 975.92Q477.89 975.92 472.81 973.69Q467.74 971.47 464.02 967.24Q460.31 963.02 458.26 957.01Q456.22 951.00 456.22 943.42L456.22 943.42L456.22 939.75Q456.22 932.18 458.24 926.19Q460.26 920.20 463.96 915.95Q467.65 911.71 472.72 909.48Q477.79 907.25 483.94 907.25L483.94 907.25Q490.14 907.25 495.24 909.48Q500.33 911.71 504.00 915.95Q507.67 920.20 509.67 926.19Q511.67 932.18 511.67 939.75ZM500.15 943.42L500.15 943.42L500.15 939.66Q500.15 934.06 499.07 929.77Q497.99 925.48 495.90 922.56Q493.81 919.65 490.78 918.15Q487.75 916.66 483.94 916.66L483.94 916.66Q480.13 916.66 477.15 918.15Q474.17 919.65 472.08 922.56Q469.99 925.48 468.89 929.77Q467.79 934.06 467.79 939.66L467.79 939.66L467.79 943.42Q467.79 949.02 468.89 953.34Q469.99 957.65 472.13 960.61Q474.26 963.57 477.24 965.06Q480.23 966.55 484.04 966.55L484.04 966.55Q487.89 966.55 490.88 965.06Q493.86 963.57 495.92 960.61Q497.99 957.65 499.07 953.34Q500.15 949.02 500.15 943.42Z M572.30 957.79L572.30 957.79Q572.30 955.72 571.68 954.12Q571.06 952.51 569.50 951.18Q567.94 949.85 565.12 948.59Q562.29 947.32 557.93 945.99L557.93 945.99Q553.16 944.52 549.14 942.71Q545.13 940.90 542.14 938.49Q539.16 936.08 537.51 932.93Q535.86 929.79 535.86 925.66L535.86 925.66Q535.86 921.57 537.58 918.22Q539.30 914.87 542.49 912.42Q545.68 909.96 550.04 908.61Q554.40 907.25 559.68 907.25L559.68 907.25Q567.11 907.25 572.51 910.01Q577.90 912.76 580.81 917.40Q583.73 922.03 583.73 927.63L583.73 927.63L572.30 927.63Q572.30 924.33 570.90 921.78Q569.50 919.23 566.68 917.76Q563.85 916.30 559.54 916.30L559.54 916.30Q555.46 916.30 552.75 917.54Q550.04 918.77 548.71 920.89Q547.38 923.00 547.38 925.66L547.38 925.66Q547.38 927.54 548.25 929.08Q549.12 930.62 550.91 931.92Q552.70 933.23 555.41 934.38Q558.12 935.53 561.79 936.58L561.79 936.58Q567.34 938.24 571.47 940.23Q575.60 942.23 578.36 944.75Q581.11 947.28 582.49 950.47Q583.87 953.66 583.87 957.70L583.87 957.70Q583.87 961.92 582.17 965.29Q580.47 968.67 577.33 971.03Q574.18 973.39 569.80 974.66Q565.42 975.92 560.04 975.92L560.04 975.92Q555.23 975.92 550.57 974.63Q545.91 973.35 542.10 970.71Q538.29 968.07 536.04 964.10Q533.79 960.13 533.79 954.80L533.79 954.80L545.31 954.80Q545.31 958.06 546.44 960.36Q547.56 962.65 549.58 964.10Q551.60 965.54 554.28 966.23Q556.97 966.92 560.04 966.92L560.04 966.92Q564.08 966.92 566.81 965.77Q569.55 964.63 570.92 962.56Q572.30 960.50 572.30 957.79Z M633.44 950.08L633.44 950.08L616.04 950.08L616.04 940.94L633.44 940.94Q637.98 940.94 640.78 939.47Q643.58 938.01 644.89 935.41Q646.20 932.82 646.20 929.47L646.20 929.47Q646.20 926.30 644.89 923.52Q643.58 920.75 640.78 919.05Q637.98 917.35 633.44 917.35L633.44 917.35L619.58 917.35L619.58 975L608.06 975L608.06 908.17L633.44 908.17Q641.19 908.17 646.63 910.90Q652.07 913.63 654.92 918.43Q657.76 923.23 657.76 929.38L657.76 929.38Q657.76 935.85 654.92 940.48Q652.07 945.12 646.63 947.60Q641.19 950.08 633.44 950.08Z M735.33 939.75L735.33 939.75L735.33 943.42Q735.33 951.00 733.36 957.01Q731.39 963.02 727.74 967.24Q724.09 971.47 718.99 973.69Q713.90 975.92 707.70 975.92L707.70 975.92Q701.55 975.92 696.48 973.69Q691.41 971.47 687.69 967.24Q683.97 963.02 681.93 957.01Q679.89 951.00 679.89 943.42L679.89 943.42L679.89 939.75Q679.89 932.18 681.91 926.19Q683.93 920.20 687.62 915.95Q691.32 911.71 696.39 909.48Q701.46 907.25 707.61 907.25L707.61 907.25Q713.81 907.25 718.90 909.48Q724.00 911.71 727.67 915.95Q731.34 920.20 733.34 926.19Q735.33 932.18 735.33 939.75ZM723.81 943.42L723.81 943.42L723.81 939.66Q723.81 934.06 722.73 929.77Q721.66 925.48 719.57 922.56Q717.48 919.65 714.45 918.15Q711.42 916.66 707.61 916.66L707.61 916.66Q703.80 916.66 700.82 918.15Q697.83 919.65 695.75 922.56Q693.66 925.48 692.56 929.77Q691.45 934.06 691.45 939.66L691.45 939.66L691.45 943.42Q691.45 949.02 692.56 953.34Q693.66 957.65 695.79 960.61Q697.93 963.57 700.91 965.06Q703.89 966.55 707.70 966.55L707.70 966.55Q711.56 966.55 714.54 965.06Q717.52 963.57 719.59 960.61Q721.66 957.65 722.73 953.34Q723.81 949.02 723.81 943.42Z M760.81 975L760.81 908.17L784.45 908.17Q792.06 908.17 797.43 910.47Q802.80 912.76 805.67 917.24Q808.54 921.71 808.54 928.28L808.54 928.28Q808.54 933.28 806.71 937.09Q804.87 940.90 801.52 943.49Q798.17 946.08 793.53 947.51L793.53 947.51L790.04 949.21L768.79 949.21L768.70 940.07L784.63 940.07Q788.76 940.07 791.51 938.60Q794.27 937.13 795.67 934.59Q797.07 932.04 797.07 928.83L797.07 928.83Q797.07 925.34 795.71 922.74Q794.36 920.15 791.56 918.75Q788.76 917.35 784.45 917.35L784.45 917.35L772.33 917.35L772.33 975L760.81 975ZM811.25 975L798.95 975L783.25 944.98L795.32 944.94L811.25 974.40L811.25 975Z"/>
  <path fill="#9c6200" d="M300.80 1032.06L307.94 1032.06L307.94 1034L300.80 1034L300.80 1032.06ZM299.03 1019.78L301.48 1019.78L301.48 1034L299.03 1034L299.03 1019.78Z M319.54 1019.78L319.37 1021.68L315.12 1034L312.55 1034L317.90 1019.78L319.54 1019.78ZM325.50 1034L322.92 1034L318.67 1021.68L318.48 1019.78L320.13 1019.78L325.50 1034ZM314.98 1028.73L322.72 1028.73L322.72 1030.67L314.98 1030.67L314.98 1028.73Z M331.09 1034L331.09 1019.78L336.12 1019.78Q337.74 1019.78 338.89 1020.27Q340.03 1020.76 340.64 1021.71Q341.25 1022.66 341.25 1024.06L341.25 1024.06Q341.25 1025.12 340.86 1025.93Q340.47 1026.74 339.76 1027.30Q339.04 1027.85 338.06 1028.15L338.06 1028.15L337.31 1028.51L332.79 1028.51L332.77 1026.57L336.16 1026.57Q337.04 1026.57 337.63 1026.26Q338.21 1025.94 338.51 1025.40Q338.81 1024.86 338.81 1024.18L338.81 1024.18Q338.81 1023.43 338.52 1022.88Q338.23 1022.33 337.64 1022.03Q337.04 1021.73 336.12 1021.73L336.12 1021.73L333.54 1021.73L333.54 1034L331.09 1034ZM341.83 1034L339.21 1034L335.87 1027.61L338.44 1027.60L341.83 1033.87L341.83 1034Z M353.20 1026.73L358.60 1026.73L358.60 1032.16Q358.30 1032.56 357.66 1033.04Q357.02 1033.51 355.96 1033.85Q354.91 1034.20 353.34 1034.20L353.34 1034.20Q352.00 1034.20 350.88 1033.74Q349.77 1033.29 348.97 1032.41Q348.16 1031.53 347.72 1030.26Q347.28 1029 347.28 1027.38L347.28 1027.38L347.28 1026.39Q347.28 1024.78 347.69 1023.52Q348.09 1022.25 348.85 1021.37Q349.62 1020.49 350.69 1020.04Q351.77 1019.59 353.14 1019.59L353.14 1019.59Q354.89 1019.59 356.04 1020.17Q357.18 1020.75 357.81 1021.77Q358.43 1022.80 358.60 1024.12L358.60 1024.12L356.20 1024.12Q356.08 1023.38 355.74 1022.79Q355.41 1022.20 354.79 1021.87Q354.17 1021.53 353.18 1021.53L353.18 1021.53Q352.33 1021.53 351.69 1021.85Q351.04 1022.17 350.62 1022.80Q350.19 1023.42 349.98 1024.32Q349.76 1025.22 349.76 1026.37L349.76 1026.37L349.76 1027.38Q349.76 1028.55 350.01 1029.46Q350.26 1030.37 350.73 1030.99Q351.21 1031.62 351.89 1031.93Q352.57 1032.25 353.43 1032.25L353.43 1032.25Q354.27 1032.25 354.81 1032.11Q355.35 1031.97 355.67 1031.77Q355.98 1031.57 356.16 1031.38L356.16 1031.38L356.16 1028.56L353.20 1028.56L353.20 1026.73Z M367.06 1032.06L374.61 1032.06L374.61 1034L367.06 1034L367.06 1032.06ZM365.30 1019.78L367.76 1019.78L367.76 1034L365.30 1034L365.30 1019.78ZM367.06 1025.72L373.63 1025.72L373.63 1027.63L367.06 1027.63L367.06 1025.72ZM367.06 1019.78L374.56 1019.78L374.56 1021.73L367.06 1021.73L367.06 1019.78Z  M400.91 1026.50L400.91 1026.50L400.91 1027.28Q400.91 1028.89 400.49 1030.17Q400.07 1031.45 399.30 1032.35Q398.52 1033.25 397.44 1033.72Q396.35 1034.20 395.03 1034.20L395.03 1034.20Q393.72 1034.20 392.65 1033.72Q391.57 1033.25 390.78 1032.35Q389.98 1031.45 389.55 1030.17Q389.12 1028.89 389.12 1027.28L389.12 1027.28L389.12 1026.50Q389.12 1024.89 389.54 1023.61Q389.97 1022.34 390.76 1021.44Q391.55 1020.53 392.63 1020.06Q393.71 1019.59 395.01 1019.59L395.01 1019.59Q396.33 1019.59 397.42 1020.06Q398.50 1020.53 399.28 1021.44Q400.06 1022.34 400.49 1023.61Q400.91 1024.89 400.91 1026.50ZM398.46 1027.28L398.46 1027.28L398.46 1026.48Q398.46 1025.29 398.23 1024.38Q398.00 1023.46 397.56 1022.84Q397.11 1022.22 396.47 1021.91Q395.82 1021.59 395.01 1021.59L395.01 1021.59Q394.20 1021.59 393.57 1021.91Q392.93 1022.22 392.49 1022.84Q392.04 1023.46 391.81 1024.38Q391.58 1025.29 391.58 1026.48L391.58 1026.48L391.58 1027.28Q391.58 1028.47 391.81 1029.39Q392.04 1030.31 392.50 1030.94Q392.95 1031.57 393.59 1031.89Q394.22 1032.20 395.03 1032.20L395.03 1032.20Q395.85 1032.20 396.49 1031.89Q397.12 1031.57 397.56 1030.94Q398.00 1030.31 398.23 1029.39Q398.46 1028.47 398.46 1027.28Z M412.75 1028.70L412.75 1028.70L409.05 1028.70L409.05 1026.75L412.75 1026.75Q413.72 1026.75 414.32 1026.44Q414.91 1026.13 415.19 1025.58Q415.47 1025.03 415.47 1024.31L415.47 1024.31Q415.47 1023.64 415.19 1023.05Q414.91 1022.46 414.32 1022.10Q413.72 1021.73 412.75 1021.73L412.75 1021.73L409.80 1021.73L409.80 1034L407.35 1034L407.35 1019.78L412.75 1019.78Q414.40 1019.78 415.56 1020.36Q416.72 1020.94 417.32 1021.96Q417.93 1022.98 417.93 1024.29L417.93 1024.29Q417.93 1025.67 417.32 1026.66Q416.72 1027.64 415.56 1028.17Q414.40 1028.70 412.75 1028.70Z M425.88 1032.06L433.42 1032.06L433.42 1034L425.88 1034L425.88 1032.06ZM424.12 1019.78L426.57 1019.78L426.57 1034L424.12 1034L424.12 1019.78ZM425.88 1025.72L432.44 1025.72L432.44 1027.63L425.88 1027.63L425.88 1025.72ZM425.88 1019.78L433.38 1019.78L433.38 1021.73L425.88 1021.73L425.88 1019.78Z M448.26 1019.78L450.70 1019.78L450.70 1034L448.24 1034L441.87 1023.81L441.87 1034L439.42 1034L439.42 1019.78L441.87 1019.78L448.26 1029.99L448.26 1019.78Z  M474.06 1030.34L474.06 1030.34Q474.06 1029.90 473.92 1029.56Q473.79 1029.21 473.46 1028.93Q473.13 1028.65 472.53 1028.38Q471.93 1028.11 471 1027.83L471 1027.83Q469.98 1027.52 469.13 1027.13Q468.28 1026.74 467.64 1026.23Q467.01 1025.72 466.65 1025.05Q466.30 1024.38 466.30 1023.50L466.30 1023.50Q466.30 1022.63 466.67 1021.92Q467.04 1021.21 467.71 1020.68Q468.39 1020.16 469.32 1019.87Q470.25 1019.59 471.37 1019.59L471.37 1019.59Q472.95 1019.59 474.10 1020.17Q475.25 1020.76 475.87 1021.74Q476.49 1022.73 476.49 1023.92L476.49 1023.92L474.06 1023.92Q474.06 1023.22 473.76 1022.68Q473.46 1022.13 472.86 1021.82Q472.26 1021.51 471.34 1021.51L471.34 1021.51Q470.47 1021.51 469.90 1021.77Q469.32 1022.04 469.04 1022.49Q468.75 1022.94 468.75 1023.50L468.75 1023.50Q468.75 1023.90 468.94 1024.23Q469.13 1024.56 469.51 1024.83Q469.89 1025.11 470.46 1025.36Q471.04 1025.60 471.82 1025.83L471.82 1025.83Q473.00 1026.18 473.88 1026.60Q474.76 1027.03 475.35 1027.56Q475.93 1028.10 476.22 1028.78Q476.52 1029.46 476.52 1030.32L476.52 1030.32Q476.52 1031.22 476.16 1031.93Q475.79 1032.65 475.13 1033.16Q474.46 1033.66 473.52 1033.93Q472.59 1034.20 471.45 1034.20L471.45 1034.20Q470.42 1034.20 469.43 1033.92Q468.44 1033.65 467.63 1033.09Q466.82 1032.53 466.34 1031.68Q465.86 1030.84 465.86 1029.70L465.86 1029.70L468.31 1029.70Q468.31 1030.40 468.55 1030.88Q468.79 1031.37 469.22 1031.68Q469.65 1031.99 470.22 1032.13Q470.79 1032.28 471.45 1032.28L471.45 1032.28Q472.31 1032.28 472.89 1032.04Q473.47 1031.79 473.76 1031.35Q474.06 1030.91 474.06 1030.34Z M494.02 1026.50L494.02 1026.50L494.02 1027.28Q494.02 1028.89 493.60 1030.17Q493.18 1031.45 492.41 1032.35Q491.63 1033.25 490.55 1033.72Q489.46 1034.20 488.14 1034.20L488.14 1034.20Q486.84 1034.20 485.76 1033.72Q484.68 1033.25 483.89 1032.35Q483.10 1031.45 482.66 1030.17Q482.23 1028.89 482.23 1027.28L482.23 1027.28L482.23 1026.50Q482.23 1024.89 482.66 1023.61Q483.09 1022.34 483.87 1021.44Q484.66 1020.53 485.74 1020.06Q486.82 1019.59 488.13 1019.59L488.13 1019.59Q489.44 1019.59 490.53 1020.06Q491.61 1020.53 492.39 1021.44Q493.17 1022.34 493.60 1023.61Q494.02 1024.89 494.02 1026.50ZM491.57 1027.28L491.57 1027.28L491.57 1026.48Q491.57 1025.29 491.34 1024.38Q491.11 1023.46 490.67 1022.84Q490.22 1022.22 489.58 1021.91Q488.94 1021.59 488.13 1021.59L488.13 1021.59Q487.31 1021.59 486.68 1021.91Q486.04 1022.22 485.60 1022.84Q485.16 1023.46 484.92 1024.38Q484.69 1025.29 484.69 1026.48L484.69 1026.48L484.69 1027.28Q484.69 1028.47 484.92 1029.39Q485.16 1030.31 485.61 1030.94Q486.06 1031.57 486.70 1031.89Q487.33 1032.20 488.14 1032.20L488.14 1032.20Q488.96 1032.20 489.60 1031.89Q490.23 1031.57 490.67 1030.94Q491.11 1030.31 491.34 1029.39Q491.57 1028.47 491.57 1027.28Z M508.44 1029.28L508.44 1019.78L510.88 1019.78L510.88 1029.28Q510.88 1030.90 510.18 1032.00Q509.48 1033.09 508.27 1033.64Q507.07 1034.20 505.58 1034.20L505.58 1034.20Q504.05 1034.20 502.85 1033.64Q501.65 1033.09 500.96 1032.00Q500.27 1030.90 500.27 1029.28L500.27 1029.28L500.27 1019.78L502.71 1019.78L502.71 1029.28Q502.71 1030.31 503.06 1030.97Q503.41 1031.63 504.06 1031.94Q504.70 1032.25 505.58 1032.25L505.58 1032.25Q506.46 1032.25 507.10 1031.94Q507.74 1031.63 508.09 1030.97Q508.44 1030.31 508.44 1029.28L508.44 1029.28Z M517.55 1034L517.55 1019.78L522.58 1019.78Q524.20 1019.78 525.34 1020.27Q526.49 1020.76 527.10 1021.71Q527.71 1022.66 527.71 1024.06L527.71 1024.06Q527.71 1025.12 527.32 1025.93Q526.93 1026.74 526.21 1027.30Q525.50 1027.85 524.51 1028.15L524.51 1028.15L523.77 1028.51L519.25 1028.51L519.23 1026.57L522.62 1026.57Q523.50 1026.57 524.08 1026.26Q524.67 1025.94 524.97 1025.40Q525.27 1024.86 525.27 1024.18L525.27 1024.18Q525.27 1023.43 524.98 1022.88Q524.69 1022.33 524.09 1022.03Q523.50 1021.73 522.58 1021.73L522.58 1021.73L520.00 1021.73L520.00 1034L517.55 1034ZM528.28 1034L525.67 1034L522.33 1027.61L524.89 1027.60L528.28 1033.87L528.28 1034Z M542.54 1029.37L542.54 1029.37L544.98 1029.37Q544.86 1030.77 544.20 1031.86Q543.53 1032.95 542.33 1033.57Q541.13 1034.20 539.41 1034.20L539.41 1034.20Q538.09 1034.20 537.04 1033.72Q535.98 1033.25 535.23 1032.37Q534.48 1031.50 534.08 1030.26Q533.69 1029.02 533.69 1027.49L533.69 1027.49L533.69 1026.30Q533.69 1024.77 534.09 1023.53Q534.50 1022.29 535.26 1021.41Q536.02 1020.52 537.09 1020.05Q538.16 1019.59 539.50 1019.59L539.50 1019.59Q541.20 1019.59 542.37 1020.21Q543.54 1020.84 544.19 1021.94Q544.84 1023.04 544.99 1024.47L544.99 1024.47L542.55 1024.47Q542.45 1023.55 542.12 1022.90Q541.79 1022.24 541.16 1021.90Q540.53 1021.55 539.50 1021.55L539.50 1021.55Q538.66 1021.55 538.04 1021.86Q537.41 1022.17 536.99 1022.78Q536.57 1023.38 536.36 1024.27Q536.15 1025.15 536.15 1026.29L536.15 1026.29L536.15 1027.49Q536.15 1028.56 536.34 1029.43Q536.53 1030.31 536.93 1030.93Q537.32 1031.56 537.94 1031.90Q538.55 1032.24 539.41 1032.24L539.41 1032.24Q540.46 1032.24 541.11 1031.91Q541.76 1031.58 542.09 1030.94Q542.43 1030.30 542.54 1029.37Z M552.95 1032.06L560.50 1032.06L560.50 1034L552.95 1034L552.95 1032.06ZM551.20 1019.78L553.65 1019.78L553.65 1034L551.20 1034L551.20 1019.78ZM552.95 1025.72L559.52 1025.72L559.52 1027.63L552.95 1027.63L552.95 1025.72ZM552.95 1019.78L560.45 1019.78L560.45 1021.73L552.95 1021.73L552.95 1019.78Z  M580.87 1028.70L580.87 1028.70L577.16 1028.70L577.16 1026.75L580.87 1026.75Q581.83 1026.75 582.43 1026.44Q583.02 1026.13 583.30 1025.58Q583.58 1025.03 583.58 1024.31L583.58 1024.31Q583.58 1023.64 583.30 1023.05Q583.02 1022.46 582.43 1022.10Q581.83 1021.73 580.87 1021.73L580.87 1021.73L577.92 1021.73L577.92 1034L575.46 1034L575.46 1019.78L580.87 1019.78Q582.52 1019.78 583.67 1020.36Q584.83 1020.94 585.44 1021.96Q586.04 1022.98 586.04 1024.29L586.04 1024.29Q586.04 1025.67 585.44 1026.66Q584.83 1027.64 583.67 1028.17Q582.52 1028.70 580.87 1028.70Z M593.99 1032.06L601.54 1032.06L601.54 1034L593.99 1034L593.99 1032.06ZM592.23 1019.78L594.68 1019.78L594.68 1034L592.23 1034L592.23 1019.78ZM593.99 1025.72L600.55 1025.72L600.55 1027.63L593.99 1027.63L593.99 1025.72ZM593.99 1019.78L601.49 1019.78L601.49 1021.73L593.99 1021.73L593.99 1019.78Z M607.53 1034L607.53 1019.78L612.56 1019.78Q614.18 1019.78 615.32 1020.27Q616.46 1020.76 617.07 1021.71Q617.68 1022.66 617.68 1024.06L617.68 1024.06Q617.68 1025.12 617.29 1025.93Q616.90 1026.74 616.19 1027.30Q615.48 1027.85 614.49 1028.15L614.49 1028.15L613.75 1028.51L609.23 1028.51L609.21 1026.57L612.60 1026.57Q613.47 1026.57 614.06 1026.26Q614.65 1025.94 614.94 1025.40Q615.24 1024.86 615.24 1024.18L615.24 1024.18Q615.24 1023.43 614.95 1022.88Q614.67 1022.33 614.07 1022.03Q613.47 1021.73 612.56 1021.73L612.56 1021.73L609.98 1021.73L609.98 1034L607.53 1034ZM618.26 1034L615.64 1034L612.30 1027.61L614.87 1027.60L618.26 1033.87L618.26 1034Z M624.28 1019.78L626.73 1019.78L626.73 1034L624.28 1034L624.28 1019.78Z M645.12 1026.50L645.12 1026.50L645.12 1027.28Q645.12 1028.89 644.70 1030.17Q644.28 1031.45 643.50 1032.35Q642.72 1033.25 641.64 1033.72Q640.56 1034.20 639.24 1034.20L639.24 1034.20Q637.93 1034.20 636.85 1033.72Q635.77 1033.25 634.98 1032.35Q634.19 1031.45 633.75 1030.17Q633.32 1028.89 633.32 1027.28L633.32 1027.28L633.32 1026.50Q633.32 1024.89 633.75 1023.61Q634.18 1022.34 634.97 1021.44Q635.75 1020.53 636.83 1020.06Q637.91 1019.59 639.22 1019.59L639.22 1019.59Q640.54 1019.59 641.62 1020.06Q642.71 1020.53 643.49 1021.44Q644.27 1022.34 644.69 1023.61Q645.12 1024.89 645.12 1026.50ZM642.67 1027.28L642.67 1027.28L642.67 1026.48Q642.67 1025.29 642.44 1024.38Q642.21 1023.46 641.76 1022.84Q641.32 1022.22 640.67 1021.91Q640.03 1021.59 639.22 1021.59L639.22 1021.59Q638.41 1021.59 637.77 1021.91Q637.14 1022.22 636.69 1022.84Q636.25 1023.46 636.02 1024.38Q635.78 1025.29 635.78 1026.48L635.78 1026.48L635.78 1027.28Q635.78 1028.47 636.02 1029.39Q636.25 1030.31 636.70 1030.94Q637.16 1031.57 637.79 1031.89Q638.43 1032.20 639.24 1032.20L639.24 1032.20Q640.06 1032.20 640.69 1031.89Q641.33 1031.57 641.77 1030.94Q642.21 1030.31 642.44 1029.39Q642.67 1028.47 642.67 1027.28Z M656.96 1028.70L656.96 1028.70L653.26 1028.70L653.26 1026.75L656.96 1026.75Q657.93 1026.75 658.52 1026.44Q659.12 1026.13 659.40 1025.58Q659.67 1025.03 659.67 1024.31L659.67 1024.31Q659.67 1023.64 659.40 1023.05Q659.12 1022.46 658.52 1022.10Q657.93 1021.73 656.96 1021.73L656.96 1021.73L654.01 1021.73L654.01 1034L651.56 1034L651.56 1019.78L656.96 1019.78Q658.61 1019.78 659.77 1020.36Q660.92 1020.94 661.53 1021.96Q662.13 1022.98 662.13 1024.29L662.13 1024.29Q662.13 1025.67 661.53 1026.66Q660.92 1027.64 659.77 1028.17Q658.61 1028.70 656.96 1028.70Z M670.08 1032.06L677.63 1032.06L677.63 1034L670.08 1034L670.08 1032.06ZM668.32 1019.78L670.77 1019.78L670.77 1034L668.32 1034L668.32 1019.78ZM670.08 1025.72L676.64 1025.72L676.64 1027.63L670.08 1027.63L670.08 1025.72ZM670.08 1019.78L677.58 1019.78L677.58 1021.73L670.08 1021.73L670.08 1019.78Z M683.62 1034L683.62 1019.78L688.65 1019.78Q690.27 1019.78 691.41 1020.27Q692.56 1020.76 693.17 1021.71Q693.78 1022.66 693.78 1024.06L693.78 1024.06Q693.78 1025.12 693.39 1025.93Q693.00 1026.74 692.28 1027.30Q691.57 1027.85 690.58 1028.15L690.58 1028.15L689.84 1028.51L685.32 1028.51L685.30 1026.57L688.69 1026.57Q689.57 1026.57 690.15 1026.26Q690.74 1025.94 691.04 1025.40Q691.34 1024.86 691.34 1024.18L691.34 1024.18Q691.34 1023.43 691.05 1022.88Q690.76 1022.33 690.16 1022.03Q689.57 1021.73 688.65 1021.73L688.65 1021.73L686.07 1021.73L686.07 1034L683.62 1034ZM694.35 1034L691.74 1034L688.40 1027.61L690.96 1027.60L694.35 1033.87L694.35 1034Z M705.92 1019.78L705.75 1021.68L701.50 1034L698.93 1034L704.28 1019.78L705.92 1019.78ZM711.88 1034L709.30 1034L705.04 1021.68L704.86 1019.78L706.51 1019.78L711.88 1034ZM701.36 1028.73L709.10 1028.73L709.10 1030.67L701.36 1030.67L701.36 1028.73Z M720.89 1019.78L723.32 1019.78L723.32 1034L720.89 1034L720.89 1019.78ZM716.46 1019.78L727.78 1019.78L727.78 1021.73L716.46 1021.73L716.46 1019.78Z M733.82 1019.78L736.28 1019.78L736.28 1034L733.82 1034L733.82 1019.78Z M747.72 1034L748.20 1031.40L751.94 1019.78L754.64 1019.78L749.54 1034L747.72 1034ZM742.04 1019.78L744.74 1019.78L748.45 1031.40L748.96 1034L747.12 1034L742.04 1019.78Z M761.99 1032.06L769.54 1032.06L769.54 1034L761.99 1034L761.99 1032.06ZM760.23 1019.78L762.68 1019.78L762.68 1034L760.23 1034L760.23 1019.78ZM761.99 1025.72L768.55 1025.72L768.55 1027.63L761.99 1027.63L761.99 1025.72ZM761.99 1019.78L769.49 1019.78L769.49 1021.73L761.99 1021.73L761.99 1019.78Z  M784.50 1034L784.50 1019.78L789.53 1019.78Q791.15 1019.78 792.29 1020.27Q793.44 1020.76 794.05 1021.71Q794.66 1022.66 794.66 1024.06L794.66 1024.06Q794.66 1025.12 794.27 1025.93Q793.88 1026.74 793.16 1027.30Q792.45 1027.85 791.46 1028.15L791.46 1028.15L790.72 1028.51L786.20 1028.51L786.18 1026.57L789.57 1026.57Q790.45 1026.57 791.04 1026.26Q791.62 1025.94 791.92 1025.40Q792.22 1024.86 792.22 1024.18L792.22 1024.18Q792.22 1023.43 791.93 1022.88Q791.64 1022.33 791.04 1022.03Q790.45 1021.73 789.53 1021.73L789.53 1021.73L786.95 1021.73L786.95 1034L784.50 1034ZM795.23 1034L792.62 1034L789.28 1027.61L791.85 1027.60L795.23 1033.87L795.23 1034Z M802.85 1032.06L810.40 1032.06L810.40 1034L802.85 1034L802.85 1032.06ZM801.09 1019.78L803.54 1019.78L803.54 1034L801.09 1034L801.09 1019.78ZM802.85 1025.72L809.41 1025.72L809.41 1027.63L802.85 1027.63L802.85 1025.72ZM802.85 1019.78L810.35 1019.78L810.35 1021.73L802.85 1021.73L802.85 1019.78Z M821.91 1026.73L827.31 1026.73L827.31 1032.16Q827.00 1032.56 826.36 1033.04Q825.72 1033.51 824.67 1033.85Q823.62 1034.20 822.04 1034.20L822.04 1034.20Q820.71 1034.20 819.59 1033.74Q818.48 1033.29 817.67 1032.41Q816.87 1031.53 816.43 1030.26Q815.99 1029 815.99 1027.38L815.99 1027.38L815.99 1026.39Q815.99 1024.78 816.39 1023.52Q816.80 1022.25 817.56 1021.37Q818.32 1020.49 819.40 1020.04Q820.48 1019.59 821.85 1019.59L821.85 1019.59Q823.60 1019.59 824.74 1020.17Q825.89 1020.75 826.52 1021.77Q827.14 1022.80 827.31 1024.12L827.31 1024.12L824.90 1024.12Q824.79 1023.38 824.45 1022.79Q824.11 1022.20 823.49 1021.87Q822.87 1021.53 821.89 1021.53L821.89 1021.53Q821.04 1021.53 820.39 1021.85Q819.75 1022.17 819.32 1022.80Q818.90 1023.42 818.68 1024.32Q818.47 1025.22 818.47 1026.37L818.47 1026.37L818.47 1027.38Q818.47 1028.55 818.72 1029.46Q818.97 1030.37 819.44 1030.99Q819.91 1031.62 820.60 1031.93Q821.28 1032.25 822.14 1032.25L822.14 1032.25Q822.98 1032.25 823.52 1032.11Q824.05 1031.97 824.37 1031.77Q824.69 1031.57 824.87 1031.38L824.87 1031.38L824.87 1028.56L821.91 1028.56L821.91 1026.73Z M834.18 1019.78L836.63 1019.78L836.63 1034L834.18 1034L834.18 1019.78Z M851.16 1030.34L851.16 1030.34Q851.16 1029.90 851.02 1029.56Q850.89 1029.21 850.56 1028.93Q850.23 1028.65 849.63 1028.38Q849.03 1028.11 848.10 1027.83L848.10 1027.83Q847.08 1027.52 846.23 1027.13Q845.38 1026.74 844.74 1026.23Q844.11 1025.72 843.75 1025.05Q843.40 1024.38 843.40 1023.50L843.40 1023.50Q843.40 1022.63 843.77 1021.92Q844.13 1021.21 844.81 1020.68Q845.49 1020.16 846.42 1019.87Q847.35 1019.59 848.47 1019.59L848.47 1019.59Q850.05 1019.59 851.20 1020.17Q852.35 1020.76 852.97 1021.74Q853.59 1022.73 853.59 1023.92L853.59 1023.92L851.16 1023.92Q851.16 1023.22 850.86 1022.68Q850.56 1022.13 849.96 1021.82Q849.36 1021.51 848.44 1021.51L848.44 1021.51Q847.57 1021.51 847.00 1021.77Q846.42 1022.04 846.14 1022.49Q845.85 1022.94 845.85 1023.50L845.85 1023.50Q845.85 1023.90 846.04 1024.23Q846.22 1024.56 846.61 1024.83Q846.99 1025.11 847.56 1025.36Q848.14 1025.60 848.92 1025.83L848.92 1025.83Q850.10 1026.18 850.98 1026.60Q851.86 1027.03 852.45 1027.56Q853.03 1028.10 853.32 1028.78Q853.62 1029.46 853.62 1030.32L853.62 1030.32Q853.62 1031.22 853.26 1031.93Q852.89 1032.65 852.23 1033.16Q851.56 1033.66 850.62 1033.93Q849.69 1034.20 848.55 1034.20L848.55 1034.20Q847.52 1034.20 846.53 1033.92Q845.54 1033.65 844.73 1033.09Q843.92 1032.53 843.44 1031.68Q842.96 1030.84 842.96 1029.70L842.96 1029.70L845.41 1029.70Q845.41 1030.40 845.65 1030.88Q845.89 1031.37 846.32 1031.68Q846.75 1031.99 847.32 1032.13Q847.89 1032.28 848.55 1032.28L848.55 1032.28Q849.41 1032.28 849.99 1032.04Q850.57 1031.79 850.86 1031.35Q851.16 1030.91 851.16 1030.34Z M863.20 1019.78L865.63 1019.78L865.63 1034L863.20 1034L863.20 1019.78ZM858.78 1019.78L870.10 1019.78L870.10 1021.73L858.78 1021.73L858.78 1019.78Z M877.73 1032.06L885.28 1032.06L885.28 1034L877.73 1034L877.73 1032.06ZM875.97 1019.78L878.42 1019.78L878.42 1034L875.97 1034L875.97 1019.78ZM877.73 1025.72L884.29 1025.72L884.29 1027.63L877.73 1027.63L877.73 1025.72ZM877.73 1019.78L885.23 1019.78L885.23 1021.73L877.73 1021.73L877.73 1019.78Z M891.27 1034L891.27 1019.78L896.30 1019.78Q897.92 1019.78 899.06 1020.27Q900.21 1020.76 900.82 1021.71Q901.43 1022.66 901.43 1024.06L901.43 1024.06Q901.43 1025.12 901.04 1025.93Q900.65 1026.74 899.93 1027.30Q899.22 1027.85 898.23 1028.15L898.23 1028.15L897.49 1028.51L892.97 1028.51L892.95 1026.57L896.34 1026.57Q897.22 1026.57 897.80 1026.26Q898.39 1025.94 898.69 1025.40Q898.99 1024.86 898.99 1024.18L898.99 1024.18Q898.99 1023.43 898.70 1022.88Q898.41 1022.33 897.81 1022.03Q897.22 1021.73 896.30 1021.73L896.30 1021.73L893.72 1021.73L893.72 1034L891.27 1034ZM902.00 1034L899.39 1034L896.05 1027.61L898.62 1027.60L902.00 1033.87L902.00 1034Z"/>
</svg>
